<mxfile host="app.diagrams.net" agent="Mozilla/5.0 (Macintosh; Intel Mac OS X 10_15_7) AppleWebKit/605.1.15 (KHTML, like Gecko) Version/18.0 Safari/605.1.15" version="26.2.2">
  <diagram name="第 1 页" id="RNgO6Hn1JE7Q3eCwwv9G">
    <mxGraphModel dx="790" dy="543" grid="1" gridSize="10" guides="1" tooltips="1" connect="1" arrows="1" fold="1" page="1" pageScale="1" pageWidth="827" pageHeight="1169" math="0" shadow="0">
      <root>
        <mxCell id="0" />
        <mxCell id="1" parent="0" />
        <mxCell id="QTiqQ1Uc_ppkP_PZXtB7-54" value="" style="rounded=1;whiteSpace=wrap;html=1;fillColor=#d5e8d4;strokeColor=#82b366;opacity=50;" vertex="1" parent="1">
          <mxGeometry x="130" y="150" width="450" height="260" as="geometry" />
        </mxCell>
        <mxCell id="QTiqQ1Uc_ppkP_PZXtB7-12" value="" style="endArrow=none;html=1;rounded=0;" edge="1" parent="1">
          <mxGeometry width="50" height="50" relative="1" as="geometry">
            <mxPoint x="220" y="180" as="sourcePoint" />
            <mxPoint x="320" y="180" as="targetPoint" />
          </mxGeometry>
        </mxCell>
        <mxCell id="QTiqQ1Uc_ppkP_PZXtB7-17" value="" style="endArrow=none;html=1;rounded=0;" edge="1" parent="1">
          <mxGeometry width="50" height="50" relative="1" as="geometry">
            <mxPoint x="120" y="179.5" as="sourcePoint" />
            <mxPoint x="200" y="180" as="targetPoint" />
          </mxGeometry>
        </mxCell>
        <mxCell id="QTiqQ1Uc_ppkP_PZXtB7-18" value="Sigma" style="rounded=0;whiteSpace=wrap;html=1;fillColor=#f8cecc;strokeColor=#b85450;" vertex="1" parent="1">
          <mxGeometry x="177" y="265" width="50" height="30" as="geometry" />
        </mxCell>
        <mxCell id="QTiqQ1Uc_ppkP_PZXtB7-19" value="Sigma" style="rounded=0;whiteSpace=wrap;html=1;fillColor=#f8cecc;strokeColor=#b85450;" vertex="1" parent="1">
          <mxGeometry x="315" y="310" width="50" height="30" as="geometry" />
        </mxCell>
        <mxCell id="QTiqQ1Uc_ppkP_PZXtB7-20" value="Sigma" style="rounded=0;whiteSpace=wrap;html=1;fillColor=#f8cecc;strokeColor=#b85450;" vertex="1" parent="1">
          <mxGeometry x="440" y="330" width="50" height="30" as="geometry" />
        </mxCell>
        <mxCell id="QTiqQ1Uc_ppkP_PZXtB7-21" value="tanh" style="rounded=0;whiteSpace=wrap;html=1;fillColor=#f8cecc;strokeColor=#b85450;" vertex="1" parent="1">
          <mxGeometry x="378" y="310" width="50" height="30" as="geometry" />
        </mxCell>
        <mxCell id="QTiqQ1Uc_ppkP_PZXtB7-22" value="" style="endArrow=classic;html=1;rounded=0;exitX=0.5;exitY=0;exitDx=0;exitDy=0;" edge="1" parent="1" source="QTiqQ1Uc_ppkP_PZXtB7-18">
          <mxGeometry width="50" height="50" relative="1" as="geometry">
            <mxPoint x="201.5" y="290" as="sourcePoint" />
            <mxPoint x="201.5" y="200" as="targetPoint" />
          </mxGeometry>
        </mxCell>
        <mxCell id="QTiqQ1Uc_ppkP_PZXtB7-29" value="" style="curved=1;endArrow=classic;html=1;rounded=0;exitX=0.5;exitY=0;exitDx=0;exitDy=0;entryX=1;entryY=0.5;entryDx=0;entryDy=0;" edge="1" parent="1" source="QTiqQ1Uc_ppkP_PZXtB7-21">
          <mxGeometry width="50" height="50" relative="1" as="geometry">
            <mxPoint x="390" y="330" as="sourcePoint" />
            <mxPoint x="360" y="260" as="targetPoint" />
            <Array as="points">
              <mxPoint x="403" y="270" />
            </Array>
          </mxGeometry>
        </mxCell>
        <mxCell id="QTiqQ1Uc_ppkP_PZXtB7-30" value="" style="endArrow=classic;html=1;rounded=0;" edge="1" parent="1">
          <mxGeometry width="50" height="50" relative="1" as="geometry">
            <mxPoint x="340" y="240" as="sourcePoint" />
            <mxPoint x="339.5" y="200" as="targetPoint" />
          </mxGeometry>
        </mxCell>
        <mxCell id="QTiqQ1Uc_ppkP_PZXtB7-31" value="" style="endArrow=classic;html=1;rounded=0;" edge="1" parent="1">
          <mxGeometry width="50" height="50" relative="1" as="geometry">
            <mxPoint x="545.5" y="180" as="sourcePoint" />
            <mxPoint x="545.5" y="210" as="targetPoint" />
          </mxGeometry>
        </mxCell>
        <mxCell id="QTiqQ1Uc_ppkP_PZXtB7-32" value="tanh" style="rounded=0;whiteSpace=wrap;html=1;fillColor=#f8cecc;strokeColor=#b85450;" vertex="1" parent="1">
          <mxGeometry x="521" y="210" width="50" height="30" as="geometry" />
        </mxCell>
        <mxCell id="QTiqQ1Uc_ppkP_PZXtB7-37" value="" style="curved=1;endArrow=classic;html=1;rounded=0;entryX=0;entryY=0.5;entryDx=0;entryDy=0;exitX=0.5;exitY=0;exitDx=0;exitDy=0;" edge="1" parent="1" source="QTiqQ1Uc_ppkP_PZXtB7-20">
          <mxGeometry width="50" height="50" relative="1" as="geometry">
            <mxPoint x="470" y="330" as="sourcePoint" />
            <mxPoint x="526" y="280" as="targetPoint" />
            <Array as="points">
              <mxPoint x="460" y="280" />
            </Array>
          </mxGeometry>
        </mxCell>
        <mxCell id="QTiqQ1Uc_ppkP_PZXtB7-38" value="" style="endArrow=classic;html=1;rounded=0;" edge="1" parent="1">
          <mxGeometry width="50" height="50" relative="1" as="geometry">
            <mxPoint x="545" y="240" as="sourcePoint" />
            <mxPoint x="545" y="260" as="targetPoint" />
          </mxGeometry>
        </mxCell>
        <mxCell id="QTiqQ1Uc_ppkP_PZXtB7-39" value="" style="endArrow=none;html=1;rounded=0;" edge="1" parent="1">
          <mxGeometry width="50" height="50" relative="1" as="geometry">
            <mxPoint x="545" y="390" as="sourcePoint" />
            <mxPoint x="545" y="300" as="targetPoint" />
          </mxGeometry>
        </mxCell>
        <mxCell id="QTiqQ1Uc_ppkP_PZXtB7-40" value="" style="endArrow=none;html=1;rounded=0;" edge="1" parent="1">
          <mxGeometry width="50" height="50" relative="1" as="geometry">
            <mxPoint x="120" y="390" as="sourcePoint" />
            <mxPoint x="465" y="390" as="targetPoint" />
          </mxGeometry>
        </mxCell>
        <mxCell id="QTiqQ1Uc_ppkP_PZXtB7-42" value="" style="endArrow=classic;html=1;rounded=0;fillColor=#f8cecc;strokeColor=#000000;" edge="1" parent="1">
          <mxGeometry width="50" height="50" relative="1" as="geometry">
            <mxPoint x="464.5" y="390" as="sourcePoint" />
            <mxPoint x="464.5" y="360" as="targetPoint" />
          </mxGeometry>
        </mxCell>
        <mxCell id="QTiqQ1Uc_ppkP_PZXtB7-44" value="" style="endArrow=classic;html=1;rounded=0;entryX=0.5;entryY=1;entryDx=0;entryDy=0;" edge="1" parent="1" target="QTiqQ1Uc_ppkP_PZXtB7-21">
          <mxGeometry width="50" height="50" relative="1" as="geometry">
            <mxPoint x="403" y="390" as="sourcePoint" />
            <mxPoint x="404.58" y="360" as="targetPoint" />
          </mxGeometry>
        </mxCell>
        <mxCell id="QTiqQ1Uc_ppkP_PZXtB7-45" value="" style="endArrow=classic;html=1;rounded=0;entryX=0.5;entryY=1;entryDx=0;entryDy=0;fillColor=#f8cecc;strokeColor=#000000;" edge="1" parent="1" target="QTiqQ1Uc_ppkP_PZXtB7-19">
          <mxGeometry width="50" height="50" relative="1" as="geometry">
            <mxPoint x="339.58" y="390" as="sourcePoint" />
            <mxPoint x="339.58" y="360" as="targetPoint" />
          </mxGeometry>
        </mxCell>
        <mxCell id="QTiqQ1Uc_ppkP_PZXtB7-46" value="" style="endArrow=classic;html=1;rounded=0;" edge="1" parent="1">
          <mxGeometry width="50" height="50" relative="1" as="geometry">
            <mxPoint x="201.5" y="390" as="sourcePoint" />
            <mxPoint x="201.5" y="360" as="targetPoint" />
          </mxGeometry>
        </mxCell>
        <mxCell id="QTiqQ1Uc_ppkP_PZXtB7-47" value="" style="endArrow=none;html=1;rounded=0;" edge="1" parent="1">
          <mxGeometry width="50" height="50" relative="1" as="geometry">
            <mxPoint x="160" y="390" as="sourcePoint" />
            <mxPoint x="160" y="350" as="targetPoint" />
          </mxGeometry>
        </mxCell>
        <mxCell id="QTiqQ1Uc_ppkP_PZXtB7-48" value="C_t" style="text;html=1;align=center;verticalAlign=middle;resizable=0;points=[];autosize=1;strokeColor=none;fillColor=none;" vertex="1" parent="1">
          <mxGeometry x="580" y="160" width="40" height="30" as="geometry" />
        </mxCell>
        <mxCell id="QTiqQ1Uc_ppkP_PZXtB7-49" value="C_t-1" style="text;html=1;align=center;verticalAlign=middle;resizable=0;points=[];autosize=1;strokeColor=none;fillColor=none;" vertex="1" parent="1">
          <mxGeometry x="80" y="165" width="50" height="30" as="geometry" />
        </mxCell>
        <mxCell id="QTiqQ1Uc_ppkP_PZXtB7-50" value="H_t-1" style="text;html=1;align=center;verticalAlign=middle;resizable=0;points=[];autosize=1;strokeColor=none;fillColor=none;" vertex="1" parent="1">
          <mxGeometry x="125" y="330" width="50" height="30" as="geometry" />
        </mxCell>
        <mxCell id="QTiqQ1Uc_ppkP_PZXtB7-51" value="H_t" style="text;html=1;align=center;verticalAlign=middle;resizable=0;points=[];autosize=1;strokeColor=none;fillColor=none;" vertex="1" parent="1">
          <mxGeometry x="590" y="370" width="40" height="30" as="geometry" />
        </mxCell>
        <mxCell id="QTiqQ1Uc_ppkP_PZXtB7-52" value="" style="endArrow=classic;html=1;rounded=0;entryX=0.125;entryY=0.667;entryDx=0;entryDy=0;entryPerimeter=0;" edge="1" parent="1">
          <mxGeometry width="50" height="50" relative="1" as="geometry">
            <mxPoint x="545" y="390" as="sourcePoint" />
            <mxPoint x="595" y="390.0099999999999" as="targetPoint" />
          </mxGeometry>
        </mxCell>
        <mxCell id="QTiqQ1Uc_ppkP_PZXtB7-55" value="X_t" style="text;html=1;align=center;verticalAlign=middle;resizable=0;points=[];autosize=1;strokeColor=none;fillColor=none;" vertex="1" parent="1">
          <mxGeometry x="85" y="370" width="40" height="30" as="geometry" />
        </mxCell>
        <mxCell id="QTiqQ1Uc_ppkP_PZXtB7-77" value="" style="group" vertex="1" connectable="0" parent="1">
          <mxGeometry x="182" y="320" width="40" height="40" as="geometry" />
        </mxCell>
        <mxCell id="QTiqQ1Uc_ppkP_PZXtB7-60" value="" style="whiteSpace=wrap;html=1;aspect=fixed;fillColor=#66CC00;" vertex="1" parent="QTiqQ1Uc_ppkP_PZXtB7-77">
          <mxGeometry y="30" width="10" height="10" as="geometry" />
        </mxCell>
        <mxCell id="QTiqQ1Uc_ppkP_PZXtB7-62" value="" style="whiteSpace=wrap;html=1;aspect=fixed;fillColor=#80FF00;" vertex="1" parent="QTiqQ1Uc_ppkP_PZXtB7-77">
          <mxGeometry x="10" y="30" width="10" height="10" as="geometry" />
        </mxCell>
        <mxCell id="QTiqQ1Uc_ppkP_PZXtB7-63" value="" style="whiteSpace=wrap;html=1;aspect=fixed;fillColor=#4D9900;" vertex="1" parent="QTiqQ1Uc_ppkP_PZXtB7-77">
          <mxGeometry x="20" y="30" width="10" height="10" as="geometry" />
        </mxCell>
        <mxCell id="QTiqQ1Uc_ppkP_PZXtB7-64" value="" style="whiteSpace=wrap;html=1;aspect=fixed;fillColor=#CCFF99;" vertex="1" parent="QTiqQ1Uc_ppkP_PZXtB7-77">
          <mxGeometry x="30" y="30" width="10" height="10" as="geometry" />
        </mxCell>
        <mxCell id="QTiqQ1Uc_ppkP_PZXtB7-65" value="" style="whiteSpace=wrap;html=1;aspect=fixed;fillColor=#4D9900;" vertex="1" parent="QTiqQ1Uc_ppkP_PZXtB7-77">
          <mxGeometry y="20" width="10" height="10" as="geometry" />
        </mxCell>
        <mxCell id="QTiqQ1Uc_ppkP_PZXtB7-66" value="" style="whiteSpace=wrap;html=1;aspect=fixed;fillColor=#99FF33;" vertex="1" parent="QTiqQ1Uc_ppkP_PZXtB7-77">
          <mxGeometry x="10" y="20" width="10" height="10" as="geometry" />
        </mxCell>
        <mxCell id="QTiqQ1Uc_ppkP_PZXtB7-67" value="" style="whiteSpace=wrap;html=1;aspect=fixed;fillColor=#66CC00;" vertex="1" parent="QTiqQ1Uc_ppkP_PZXtB7-77">
          <mxGeometry x="20" y="20" width="10" height="10" as="geometry" />
        </mxCell>
        <mxCell id="QTiqQ1Uc_ppkP_PZXtB7-68" value="" style="whiteSpace=wrap;html=1;aspect=fixed;fillColor=#66CC00;" vertex="1" parent="QTiqQ1Uc_ppkP_PZXtB7-77">
          <mxGeometry x="30" y="20" width="10" height="10" as="geometry" />
        </mxCell>
        <mxCell id="QTiqQ1Uc_ppkP_PZXtB7-69" value="" style="whiteSpace=wrap;html=1;aspect=fixed;fillColor=#CCFF99;" vertex="1" parent="QTiqQ1Uc_ppkP_PZXtB7-77">
          <mxGeometry y="10" width="10" height="10" as="geometry" />
        </mxCell>
        <mxCell id="QTiqQ1Uc_ppkP_PZXtB7-70" value="" style="whiteSpace=wrap;html=1;aspect=fixed;fillColor=#336600;" vertex="1" parent="QTiqQ1Uc_ppkP_PZXtB7-77">
          <mxGeometry x="10" y="10" width="10" height="10" as="geometry" />
        </mxCell>
        <mxCell id="QTiqQ1Uc_ppkP_PZXtB7-71" value="" style="whiteSpace=wrap;html=1;aspect=fixed;fillColor=#99FF33;" vertex="1" parent="QTiqQ1Uc_ppkP_PZXtB7-77">
          <mxGeometry x="20" y="10" width="10" height="10" as="geometry" />
        </mxCell>
        <mxCell id="QTiqQ1Uc_ppkP_PZXtB7-72" value="" style="whiteSpace=wrap;html=1;aspect=fixed;fillColor=#CCFF99;" vertex="1" parent="QTiqQ1Uc_ppkP_PZXtB7-77">
          <mxGeometry x="30" y="10" width="10" height="10" as="geometry" />
        </mxCell>
        <mxCell id="QTiqQ1Uc_ppkP_PZXtB7-73" value="" style="whiteSpace=wrap;html=1;aspect=fixed;fillColor=#4D9900;" vertex="1" parent="QTiqQ1Uc_ppkP_PZXtB7-77">
          <mxGeometry width="10" height="10" as="geometry" />
        </mxCell>
        <mxCell id="QTiqQ1Uc_ppkP_PZXtB7-74" value="" style="whiteSpace=wrap;html=1;aspect=fixed;fillColor=#336600;" vertex="1" parent="QTiqQ1Uc_ppkP_PZXtB7-77">
          <mxGeometry x="10" width="10" height="10" as="geometry" />
        </mxCell>
        <mxCell id="QTiqQ1Uc_ppkP_PZXtB7-75" value="" style="whiteSpace=wrap;html=1;aspect=fixed;fillColor=#4D9900;" vertex="1" parent="QTiqQ1Uc_ppkP_PZXtB7-77">
          <mxGeometry x="20" width="10" height="10" as="geometry" />
        </mxCell>
        <mxCell id="QTiqQ1Uc_ppkP_PZXtB7-76" value="" style="whiteSpace=wrap;html=1;aspect=fixed;fillColor=#CCFF99;" vertex="1" parent="QTiqQ1Uc_ppkP_PZXtB7-77">
          <mxGeometry x="30" width="10" height="10" as="geometry" />
        </mxCell>
        <mxCell id="QTiqQ1Uc_ppkP_PZXtB7-150" value="" style="rounded=1;whiteSpace=wrap;html=1;dashed=1;dashPattern=8 8;fillColor=none;strokeColor=#3399FF;" vertex="1" parent="1">
          <mxGeometry x="171" y="155" width="62" height="220" as="geometry" />
        </mxCell>
        <mxCell id="QTiqQ1Uc_ppkP_PZXtB7-95" value="" style="endArrow=none;html=1;rounded=0;" edge="1" parent="1">
          <mxGeometry width="50" height="50" relative="1" as="geometry">
            <mxPoint x="360" y="179.57999999999998" as="sourcePoint" />
            <mxPoint x="590" y="180" as="targetPoint" />
          </mxGeometry>
        </mxCell>
        <mxCell id="QTiqQ1Uc_ppkP_PZXtB7-124" value="Sigma" style="rounded=0;whiteSpace=wrap;html=1;fillColor=#f8cecc;strokeColor=#b85450;" vertex="1" parent="1">
          <mxGeometry x="254" y="310" width="50" height="30" as="geometry" />
        </mxCell>
        <mxCell id="QTiqQ1Uc_ppkP_PZXtB7-125" value="" style="endArrow=classic;html=1;rounded=0;" edge="1" parent="1">
          <mxGeometry width="50" height="50" relative="1" as="geometry">
            <mxPoint x="339.58" y="310" as="sourcePoint" />
            <mxPoint x="339.58" y="280" as="targetPoint" />
          </mxGeometry>
        </mxCell>
        <mxCell id="QTiqQ1Uc_ppkP_PZXtB7-126" value="" style="endArrow=classic;html=1;rounded=0;entryX=0.5;entryY=1;entryDx=0;entryDy=0;fillColor=#f8cecc;strokeColor=#000000;" edge="1" parent="1" target="QTiqQ1Uc_ppkP_PZXtB7-124">
          <mxGeometry width="50" height="50" relative="1" as="geometry">
            <mxPoint x="278.58" y="390" as="sourcePoint" />
            <mxPoint x="278.58" y="360" as="targetPoint" />
          </mxGeometry>
        </mxCell>
        <mxCell id="QTiqQ1Uc_ppkP_PZXtB7-127" value="" style="curved=1;endArrow=classic;html=1;rounded=0;exitX=0.5;exitY=0;exitDx=0;exitDy=0;" edge="1" parent="1" source="QTiqQ1Uc_ppkP_PZXtB7-124">
          <mxGeometry width="50" height="50" relative="1" as="geometry">
            <mxPoint x="270" y="330" as="sourcePoint" />
            <mxPoint x="320" y="260" as="targetPoint" />
            <Array as="points">
              <mxPoint x="280" y="270" />
            </Array>
          </mxGeometry>
        </mxCell>
        <mxCell id="QTiqQ1Uc_ppkP_PZXtB7-129" value="" style="endArrow=classic;html=1;rounded=0;exitX=0;exitY=0;exitDx=0;exitDy=0;" edge="1" parent="1" source="QTiqQ1Uc_ppkP_PZXtB7-75">
          <mxGeometry width="50" height="50" relative="1" as="geometry">
            <mxPoint x="201.58" y="315" as="sourcePoint" />
            <mxPoint x="202.08" y="295" as="targetPoint" />
          </mxGeometry>
        </mxCell>
        <mxCell id="QTiqQ1Uc_ppkP_PZXtB7-151" value="" style="rounded=1;whiteSpace=wrap;html=1;dashed=1;dashPattern=8 8;fillColor=none;strokeColor=#3399FF;" vertex="1" parent="1">
          <mxGeometry x="250.5" y="290" width="57" height="85" as="geometry" />
        </mxCell>
        <mxCell id="QTiqQ1Uc_ppkP_PZXtB7-153" value="" style="rounded=1;whiteSpace=wrap;html=1;dashed=1;dashPattern=8 8;fillColor=none;strokeColor=#3399FF;" vertex="1" parent="1">
          <mxGeometry x="311.5" y="290" width="57" height="85" as="geometry" />
        </mxCell>
        <mxCell id="QTiqQ1Uc_ppkP_PZXtB7-154" value="" style="rounded=1;whiteSpace=wrap;html=1;dashed=1;dashPattern=8 8;fillColor=none;strokeColor=#3399FF;" vertex="1" parent="1">
          <mxGeometry x="436.5" y="290" width="57" height="85" as="geometry" />
        </mxCell>
        <mxCell id="QTiqQ1Uc_ppkP_PZXtB7-155" value="" style="endArrow=classic;html=1;rounded=0;strokeColor=#3399FF;" edge="1" parent="1">
          <mxGeometry width="50" height="50" relative="1" as="geometry">
            <mxPoint x="470" y="425" as="sourcePoint" />
            <mxPoint x="470.5" y="375" as="targetPoint" />
          </mxGeometry>
        </mxCell>
        <mxCell id="QTiqQ1Uc_ppkP_PZXtB7-157" value="" style="endArrow=classic;html=1;rounded=0;strokeColor=#3399FF;" edge="1" parent="1">
          <mxGeometry width="50" height="50" relative="1" as="geometry">
            <mxPoint x="345" y="425" as="sourcePoint" />
            <mxPoint x="345.5" y="375" as="targetPoint" />
          </mxGeometry>
        </mxCell>
        <mxCell id="QTiqQ1Uc_ppkP_PZXtB7-158" value="" style="endArrow=classic;html=1;rounded=0;strokeColor=#3399FF;" edge="1" parent="1">
          <mxGeometry width="50" height="50" relative="1" as="geometry">
            <mxPoint x="284" y="425" as="sourcePoint" />
            <mxPoint x="284.5" y="375" as="targetPoint" />
          </mxGeometry>
        </mxCell>
        <mxCell id="QTiqQ1Uc_ppkP_PZXtB7-159" value="" style="endArrow=classic;html=1;rounded=0;strokeColor=#3399FF;" edge="1" parent="1">
          <mxGeometry width="50" height="50" relative="1" as="geometry">
            <mxPoint x="207" y="425" as="sourcePoint" />
            <mxPoint x="207.5" y="375" as="targetPoint" />
          </mxGeometry>
        </mxCell>
        <mxCell id="QTiqQ1Uc_ppkP_PZXtB7-160" value="Forget Gate&amp;nbsp;&lt;div&gt;with W_c&lt;/div&gt;" style="text;html=1;align=center;verticalAlign=middle;resizable=0;points=[];autosize=1;strokeColor=none;fillColor=none;" vertex="1" parent="1">
          <mxGeometry x="160.5" y="420" width="90" height="40" as="geometry" />
        </mxCell>
        <mxCell id="QTiqQ1Uc_ppkP_PZXtB7-161" value="Causal&amp;nbsp;&lt;div&gt;Gate&lt;/div&gt;" style="text;html=1;align=center;verticalAlign=middle;resizable=0;points=[];autosize=1;strokeColor=none;fillColor=none;" vertex="1" parent="1">
          <mxGeometry x="254" y="420" width="60" height="40" as="geometry" />
        </mxCell>
        <mxCell id="QTiqQ1Uc_ppkP_PZXtB7-162" value="Input&lt;br&gt;&lt;div&gt;Gate&lt;/div&gt;" style="text;html=1;align=center;verticalAlign=middle;resizable=0;points=[];autosize=1;strokeColor=none;fillColor=none;" vertex="1" parent="1">
          <mxGeometry x="320" y="420" width="50" height="40" as="geometry" />
        </mxCell>
        <mxCell id="QTiqQ1Uc_ppkP_PZXtB7-163" value="Output&lt;br&gt;&lt;div&gt;Gate&lt;/div&gt;" style="text;html=1;align=center;verticalAlign=middle;resizable=0;points=[];autosize=1;strokeColor=none;fillColor=none;" vertex="1" parent="1">
          <mxGeometry x="438.5" y="420" width="60" height="40" as="geometry" />
        </mxCell>
        <mxCell id="QTiqQ1Uc_ppkP_PZXtB7-8" value="" style="ellipse;whiteSpace=wrap;html=1;aspect=fixed;fillColor=#fff2cc;strokeColor=#d6b656;" vertex="1" parent="1">
          <mxGeometry x="320" y="160" width="40" height="40" as="geometry" />
        </mxCell>
        <mxCell id="QTiqQ1Uc_ppkP_PZXtB7-11" value="" style="group;strokeWidth=2;" vertex="1" connectable="0" parent="1">
          <mxGeometry x="330" y="170" width="20" height="20" as="geometry" />
        </mxCell>
        <mxCell id="QTiqQ1Uc_ppkP_PZXtB7-2" value="" style="endArrow=none;dashed=1;html=1;rounded=0;" edge="1" parent="QTiqQ1Uc_ppkP_PZXtB7-11">
          <mxGeometry width="50" height="50" relative="1" as="geometry">
            <mxPoint y="10" as="sourcePoint" />
            <mxPoint y="10" as="targetPoint" />
          </mxGeometry>
        </mxCell>
        <mxCell id="QTiqQ1Uc_ppkP_PZXtB7-9" value="" style="endArrow=none;html=1;rounded=0;" edge="1" parent="QTiqQ1Uc_ppkP_PZXtB7-11">
          <mxGeometry width="50" height="50" relative="1" as="geometry">
            <mxPoint y="10" as="sourcePoint" />
            <mxPoint x="20" y="10" as="targetPoint" />
          </mxGeometry>
        </mxCell>
        <mxCell id="QTiqQ1Uc_ppkP_PZXtB7-10" value="" style="endArrow=none;html=1;rounded=0;" edge="1" parent="QTiqQ1Uc_ppkP_PZXtB7-11">
          <mxGeometry width="50" height="50" relative="1" as="geometry">
            <mxPoint x="10" y="20" as="sourcePoint" />
            <mxPoint x="10" as="targetPoint" />
          </mxGeometry>
        </mxCell>
        <mxCell id="QTiqQ1Uc_ppkP_PZXtB7-173" value="" style="group" vertex="1" connectable="0" parent="1">
          <mxGeometry x="525" y="260" width="40" height="40" as="geometry" />
        </mxCell>
        <mxCell id="QTiqQ1Uc_ppkP_PZXtB7-168" value="" style="ellipse;whiteSpace=wrap;html=1;aspect=fixed;fillColor=#fff2cc;strokeColor=#d6b656;" vertex="1" parent="QTiqQ1Uc_ppkP_PZXtB7-173">
          <mxGeometry width="40" height="40" as="geometry" />
        </mxCell>
        <mxCell id="QTiqQ1Uc_ppkP_PZXtB7-169" value="" style="group;strokeWidth=2;rotation=45;" vertex="1" connectable="0" parent="QTiqQ1Uc_ppkP_PZXtB7-173">
          <mxGeometry x="10" y="10" width="20" height="20" as="geometry" />
        </mxCell>
        <mxCell id="QTiqQ1Uc_ppkP_PZXtB7-170" value="" style="endArrow=none;dashed=1;html=1;rounded=0;" edge="1" parent="QTiqQ1Uc_ppkP_PZXtB7-169">
          <mxGeometry width="50" height="50" relative="1" as="geometry">
            <mxPoint x="3" y="3" as="sourcePoint" />
            <mxPoint x="3" y="3" as="targetPoint" />
          </mxGeometry>
        </mxCell>
        <mxCell id="QTiqQ1Uc_ppkP_PZXtB7-171" value="" style="endArrow=none;html=1;rounded=0;" edge="1" parent="QTiqQ1Uc_ppkP_PZXtB7-169">
          <mxGeometry width="50" height="50" relative="1" as="geometry">
            <mxPoint x="3" y="3" as="sourcePoint" />
            <mxPoint x="17" y="17" as="targetPoint" />
          </mxGeometry>
        </mxCell>
        <mxCell id="QTiqQ1Uc_ppkP_PZXtB7-172" value="" style="endArrow=none;html=1;rounded=0;" edge="1" parent="QTiqQ1Uc_ppkP_PZXtB7-169">
          <mxGeometry width="50" height="50" relative="1" as="geometry">
            <mxPoint x="3" y="17" as="sourcePoint" />
            <mxPoint x="17" y="3" as="targetPoint" />
          </mxGeometry>
        </mxCell>
        <mxCell id="QTiqQ1Uc_ppkP_PZXtB7-174" value="" style="group" vertex="1" connectable="0" parent="1">
          <mxGeometry x="320" y="240" width="40" height="40" as="geometry" />
        </mxCell>
        <mxCell id="QTiqQ1Uc_ppkP_PZXtB7-175" value="" style="ellipse;whiteSpace=wrap;html=1;aspect=fixed;fillColor=#fff2cc;strokeColor=#d6b656;" vertex="1" parent="QTiqQ1Uc_ppkP_PZXtB7-174">
          <mxGeometry width="40" height="40" as="geometry" />
        </mxCell>
        <mxCell id="QTiqQ1Uc_ppkP_PZXtB7-176" value="" style="group;strokeWidth=2;rotation=45;" vertex="1" connectable="0" parent="QTiqQ1Uc_ppkP_PZXtB7-174">
          <mxGeometry x="10" y="10" width="20" height="20" as="geometry" />
        </mxCell>
        <mxCell id="QTiqQ1Uc_ppkP_PZXtB7-177" value="" style="endArrow=none;dashed=1;html=1;rounded=0;" edge="1" parent="QTiqQ1Uc_ppkP_PZXtB7-176">
          <mxGeometry width="50" height="50" relative="1" as="geometry">
            <mxPoint x="3" y="3" as="sourcePoint" />
            <mxPoint x="3" y="3" as="targetPoint" />
          </mxGeometry>
        </mxCell>
        <mxCell id="QTiqQ1Uc_ppkP_PZXtB7-178" value="" style="endArrow=none;html=1;rounded=0;" edge="1" parent="QTiqQ1Uc_ppkP_PZXtB7-176">
          <mxGeometry width="50" height="50" relative="1" as="geometry">
            <mxPoint x="3" y="3" as="sourcePoint" />
            <mxPoint x="17" y="17" as="targetPoint" />
          </mxGeometry>
        </mxCell>
        <mxCell id="QTiqQ1Uc_ppkP_PZXtB7-179" value="" style="endArrow=none;html=1;rounded=0;" edge="1" parent="QTiqQ1Uc_ppkP_PZXtB7-176">
          <mxGeometry width="50" height="50" relative="1" as="geometry">
            <mxPoint x="3" y="17" as="sourcePoint" />
            <mxPoint x="17" y="3" as="targetPoint" />
          </mxGeometry>
        </mxCell>
        <mxCell id="QTiqQ1Uc_ppkP_PZXtB7-180" value="" style="group" vertex="1" connectable="0" parent="1">
          <mxGeometry x="180" y="160" width="40" height="40" as="geometry" />
        </mxCell>
        <mxCell id="QTiqQ1Uc_ppkP_PZXtB7-181" value="" style="ellipse;whiteSpace=wrap;html=1;aspect=fixed;fillColor=#fff2cc;strokeColor=#d6b656;" vertex="1" parent="QTiqQ1Uc_ppkP_PZXtB7-180">
          <mxGeometry width="40" height="40" as="geometry" />
        </mxCell>
        <mxCell id="QTiqQ1Uc_ppkP_PZXtB7-182" value="" style="group;strokeWidth=2;rotation=45;" vertex="1" connectable="0" parent="QTiqQ1Uc_ppkP_PZXtB7-180">
          <mxGeometry x="10" y="10" width="20" height="20" as="geometry" />
        </mxCell>
        <mxCell id="QTiqQ1Uc_ppkP_PZXtB7-183" value="" style="endArrow=none;dashed=1;html=1;rounded=0;" edge="1" parent="QTiqQ1Uc_ppkP_PZXtB7-182">
          <mxGeometry width="50" height="50" relative="1" as="geometry">
            <mxPoint x="3" y="3" as="sourcePoint" />
            <mxPoint x="3" y="3" as="targetPoint" />
          </mxGeometry>
        </mxCell>
        <mxCell id="QTiqQ1Uc_ppkP_PZXtB7-184" value="" style="endArrow=none;html=1;rounded=0;" edge="1" parent="QTiqQ1Uc_ppkP_PZXtB7-182">
          <mxGeometry width="50" height="50" relative="1" as="geometry">
            <mxPoint x="3" y="3" as="sourcePoint" />
            <mxPoint x="17" y="17" as="targetPoint" />
          </mxGeometry>
        </mxCell>
        <mxCell id="QTiqQ1Uc_ppkP_PZXtB7-185" value="" style="endArrow=none;html=1;rounded=0;" edge="1" parent="QTiqQ1Uc_ppkP_PZXtB7-182">
          <mxGeometry width="50" height="50" relative="1" as="geometry">
            <mxPoint x="3" y="17" as="sourcePoint" />
            <mxPoint x="17" y="3" as="targetPoint" />
          </mxGeometry>
        </mxCell>
      </root>
    </mxGraphModel>
  </diagram>
</mxfile>
